<?xml version="1.0" encoding="UTF-8"?>
<svg width="565" height="150" version="1.1" viewBox="0 0 149.49 39.688" xmlns="http://www.w3.org/2000/svg">
<g fill="#fff">
<path d="m110.76 12.484c-1.2636 0-6.5189 4.5658-7.7251 5.7433-1.4647 1.4359-3.102 3.1019-4.3656 4.624 2.2975-3.2165 5.4281-7.0076 5.4281-7.582 0.0287-0.40207-0.91906-1.7804-1.4934-2.2686-0.71798-0.60309-0.97645-0.37362-0.94774-0.37362 0.51694 0.25847 0.11491 1.3501-0.60307 2.4701-2.2688 3.475-6.2607 8.2997-6.5479 9.9079-0.14359 0.86157 1.206 2.5848 1.5219 2.6422 0.31592 0.0574 0.63209-0.14381 0.37362-0.22996-0.0574 0-0.086-0.0573-0.11472-0.11473-0.25847-0.89028 4.595-5.7437 7.352-8.3571 3.5037-3.3314 6.6626-4.825 6.8637-4.825 0 0 0.0574-8e-5 0.0574 0.0574 0 0.0861-2.2402 2.7857-3.59 4.6524-0.52993 0.73181-0.976 1.3691-1.3844 1.9627-1.2799 1.6977-2.217 3.464-2.3492 3.8385-0.0287 0.0862-0.0574 0.20116-0.0574 0.28732-0.0862 1.0913 1.522 2.9006 2.6133 2.9006 0.0287 0 0.0575-2.4e-4 0.14366-0.0289 0.5573-0.15923 1.5845-0.94506 2.7771-2.0081l-1.0862 0.43563c-2.8677 0.85755-1.0621-1.6498 0.10697-3.5982l6e-3 -1e-3c0.38479-0.56918 0.81177-1.177 1.2697-1.8066 1.8093-2.4985 2.8142-3.5035 4.2214-5.1692 0.0287-0.0574 0.0579-0.11516 0.0579-0.1726 0.0287-0.34463-0.86161-1.7228-1.4934-2.3833-0.31591-0.31591-0.66071-0.60307-1.034-0.60307z" stroke-width="1.4"/>
<path transform="matrix(.26458 0 0 .26458 -5.4925 -29.454)" d="m510.82 129.25c-0.11623 5e-3 -0.23732 0.0217-0.35742 0.0391-7.6484 3.0697-22.675 10.438-33.789 13.961-2.8031 0.89475-5.4928 1.7039-7.9922 2.4082l-0.01 0.0195c-8.3797 1.8793-19.521 5.3792-13.037-3.8906l2.8535-3.3809c-5.2313 3.0156-9.2704 5.7678-10.504 7.5781-0.2053 0.27502-0.24119 0.37745-0.27539 0.48047-1.2968 3.9155 3.2848 11.835 7.3027 12.822 0.30912 0.1024 0.75442 0.1374 1.0977 0.13672 1.501-0.0293 8.9526-1.2922 16.564-3.8672 2.6151-0.76009 5.4322-1.603 8.6875-2.6348 8.3014-2.6248 30.876-12.413 31.186-12.311 0.20609 0.0683 0.13672 0.27539 0.13672 0.27539-0.23888 0.72128-9.3509 10.28-25.467 18.893-12.653 6.7865-35.834 18.433-38.721 16.447-0.1719-0.17129-0.34369-0.34079-0.27539-0.54688-2e-3 -1.0297-1.0983-0.13526-1.2676 1.0664-0.1693 1.2017 4.4081 8.0911 7.6699 8.5996l1.7383-1.6973c18.478-5.933 28.798-8.0333 40.741-8.4379 20.083 0.45381 30.233 3.7515 47.816 9.1841-7.135-4.2659-17.28-8.5242-25.052-10.831-7.7708-2.3062-17.326-4.0298-24.951-3.9937h-8e-3c-11.263-0.0264-20.16 1.7545-27.883 3.6621l0.27343-0.26758c6.9626-2.7251 14.887-6.6192 21.779-10.168 5.6579-2.9286 28.284-16.359 29.785-20.893 0.44361-1.3395-0.17749-2.9189-0.93555-4.4277-1.6192-3.0518-5.5048-7.883-6.7754-8.1895-0.10304-0.0339-0.21581-0.042-0.33203-0.0371z" color="#000000" style="paint-order:stroke markers fill"/>
<path transform="matrix(.26458 0 0 .26458 .27378 -62.489)" d="m532.29 283.05c-7.5651 0-18.994 6.509-29.268 14.9 3.4956 1.2077 7.1984 2.6749 10.805 4.2949 7.7158-6.7414 15.945-12.133 22.914-13.66 0.86834-0.21695 1.8445-0.32617 2.7129-0.32617 1.6281 0 3.0404 0.54344 3.4746 2.3887 0.0809 0.40604 0.0832 0.57722 0.0937 0.98243 0.0227 0.86211-0.034 2.7476-0.74022 5.1914-0.41692 1.4446-1.4202 3.51-3.3574 4.7617 0.0189 0.034 0.0386 0.0635 0.0723 0.082 0.44821 0.24831 1.9766-0.48828 1.9766-0.48828 3.3649-1.6282 6.8398-4.3426 6.8398-5.9707 0-6.5126-6.9485-12.156-15.523-12.156zm-36.09 20.936c-9.6607 9.2625-16.988 19.588-16.988 25.412 0 5.2101 7.0553 12.156 10.203 12.156 4.2332 0 19.431-12.156 31.588-23.336l7.2715-6.6211c-7.4483 9.5064-11.33 14.999-12.498 17.34-0.12813 0.2502-0.23497 0.47498-0.29885 0.65039-3e-3 8e-3 -6e-3 0.0198-0.01 0.0273v2e-3c-0.10847 0.32579-0.21876 0.75838-0.21876 1.084-0.0189 0.25777-0.0147 0.52608 0.0117 0.80274 0.0265 0.27666 0.0766 0.56069 0.14846 0.85156 0.85852 3.4904 4.732 7.8357 8.0937 9.0059 0.28007 0.0975 0.55711 0.17358 0.82814 0.22461 0.27099 0.051 0.53714 0.0781 0.79491 0.0781 0.10847 0 0.21732 9.4e-4 0.54296-0.10742 0.0189-8e-3 0.0452-0.0178 0.0664-0.0254 0.1663-0.0503 0.34431-0.11708 0.53125-0.19531 0.0582-0.0227 0.11569-0.0474 0.17579-0.0742 0.0892-0.0397 0.18829-0.0933 0.28127-0.13867 0.22375-0.10885 0.4566-0.23088 0.7031-0.3711 0.0998-0.0567 0.20153-0.11613 0.30471-0.17773 0.28913-0.17235 0.5924-0.36322 0.90818-0.57227 0.045-0.0302 0.0875-0.0573 0.13281-0.0879 1.5544-1.0422 3.4144-2.514 5.4473-4.2539 0.49462-0.42354 1.0017-0.86391 1.5156-1.3184 10.176-8.9968 23.799-23.684 27.381-28.713 0.40705-0.56984 0.0813-1.2009-0.42773-1.1602-0.1697 0.0151-0.35868 0.10091-0.54883 0.29102-14.328 13.894-32.997 28.982-35.385 28.982-0.54274 0-0.54296-0.21728-0.54296-0.54296 3e-3 -0.045-0.0143-0.14077-0.0332-0.23829 1.3972-8.0011 5.014-11.085 6.6699-16.926 1.8662-5.3399 0.32851-10.147-0.37108-11.885-10.522 11.205-39.971 29.807-43.387 29.807-0.75984 0-0.86914-0.43416-0.86914-0.75977 0-3.4925 9.1397-15.247 20.516-26.25-4.2353-1.1865-8.2896-2.191-12.537-2.9609z" stroke-width="5.2915"/>
<path transform="matrix(.35278 0 0 -.35278 -23.192 85.513)" d="m370.68 130.95c-2.4745 0-5.3909 1.0517-7.8359 2.5996-2.445 1.5479-4.479 3.5839-4.7793 5.9316-0.35842 2.611 1.0354 5.243 3.4316 7.709 2.3986 2.4685 5.8569 4.831 9.9453 6.9434l2e-3 2e-3c7.4783 3.8303 17.176 6.3044 25.326 7.3457h2e-3c3.5126 0.44512 8.0494 0.40897 11.746 0.40625 2.4868 3.4699 4.2027 6.0284 4.7306 7.1048-2.4673-0.48233-4.7135-0.73795-4.7135-0.73795 6.6107 4.868 11.583 8.1576 10.146 12.371-0.53126 1.3266-1.5328 2.223-2.2886 2.7056-0.75581 0.48263-1.8135 0.70587-2.709 0.8125h-6e-3c-6.617 0.83512-14.756-2.267-21.17-6.5137-3.2071-2.1234-5.9854-4.5245-7.9356-6.8027-1.9501-2.2782-3.0195-4.4492-3.0195-5.9082 0-0.2721 0.0741-0.40092 0.21289-0.51953 0.13881-0.11862 0.38562-0.22266 0.7539-0.22266 2.188 0 6.1043 0.80148 10.88 2.7333 5.2595 2.0052 10.171 5.1601 13.823 7.515-5.2573-5.0318-15.891-13.788-21.834-14.235-2.4252 0-4.5296 1.1559-6.0215 2.666s-2.4297 3.3667-2.4297 5.0684c0 4.9748 4.8022 10.231 11.287 14.301 6.4849 4.0702 14.78 6.9206 22.275 6.5273 5.7941-0.24643 13.05-2.7537 12.894-9.2176-0.15348-2.3881-1.8935-5.7648-6.2847-8.2072 3.2604 0.4399 1.6576-3.1709 1.6576-3.1709-0.29477-1.2207-1.6512-4.0731-2.9717-6.5 2.9801-0.20624 6.0256-0.47345 9.0797-1.0434-4.385-0.44314-8.9404-0.93535-10.41-1.2183-1.9454-2.8758-4.2429-5.8215-6.9395-8.6484-9.7874-10.51-23.911-19.797-36.846-19.797zm-4.3945 4.3476c10.72 0 26.636 9.4299 37.104 20.43 1.0211 1.0831 1.9126 2.2049 2.8223 3.3203-5.6418-0.28598-11.811-1.0712-16.746-2.5039-5.1823-1.506-9.5674-3.4528-13.064-5.3555-4.2268-2.3902-7.5562-4.9553-9.8008-7.3086-2.2448-2.3535-3.3438-4.5169-3.3438-5.8672 0-0.57743 0.33281-1.2789 0.9043-1.8184s1.3479-0.89649 2.125-0.89649z" color="#000000" style="-inkscape-stroke:none"/>
<path d="m93.171 12.397c-2.0678 0-5.2267 1.8379-8.0124 4.1641-3.274 2.7283-6.0312 6.2607-6.0312 8.0987 0 1.3785 1.8667 3.2163 2.6996 3.2163 1.12 0 5.1411-3.2162 8.3576-6.1743l1.9239-1.7518c-2.1826 2.7857-3.2166 4.2789-3.3889 4.7672-0.0287 0.0862-0.0574 0.20117-0.0574 0.28732-0.0862 1.0913 1.522 2.9006 2.6133 2.9006 0.0287 0 0.0575-2.2e-4 0.14366-0.0289 0.55731-0.15923 1.5845-0.94507 2.7771-2.0082l-1.0862 0.43563s-1.6369 0.62855-1.6273-0.22065c0.29881-2.4844 1.3662-3.3015 1.8361-4.9589 0.49375-1.4129 0.0869-2.6847-0.0982-3.1445-2.784 2.9647-10.576 7.8863-11.479 7.8863-0.20103 0-0.22996-0.11486-0.22996-0.20102 0-0.97644 2.6996-4.3941 5.9449-7.4383 2.2688-2.1252 4.7961-3.9056 6.8926-4.3651 0.22975-0.0574 0.48803-0.0863 0.71778-0.0863 0.43078 0 0.80445 0.14378 0.91933 0.632 0.0214 0.10743 0.022 0.15273 0.0248 0.25994 6e-3 0.2281-9e-3 0.72697-0.19586 1.3736-0.11031 0.38222-0.37575 0.92869-0.88831 1.2599 5e-3 9e-3 0.0102 0.0168 0.0191 0.0217 0.11859 0.0657 0.52296-0.12919 0.52296-0.12919 0.89029-0.43078 1.8097-1.149 1.8097-1.5798 0-1.7231-1.8384-3.2163-4.1072-3.2163z" stroke-width="1.4"/>
<path d="m76.428 18.112c2.0965-1.7806 3.877-2.958 5.6289-3.1591 0.77541-0.0862 1.3785 0.20103 1.6083 0.51694 0.17231 0.25847 0.28718 0.57438 0.25846 0.86157 0.40207-0.37335 0.54566-1.2636 0.57438-1.637 0.0862-1.3785-0.89028-2.6421-1.4934-2.5273-1.3498 0.28718-4.7386 3.1878-6.3756 4.6525-0.83285 0.77541-1.6083 1.5508-2.3262 2.355 1.4647-1.9529 2.6996-3.5611 2.6996-3.9058 0.0287-0.40206-0.97644-1.7806-1.5508-2.2688-0.71798-0.60309-0.97645-0.37334-0.94773-0.37334 0.51694 0.25847 0.11488 1.3498-0.6031 2.4698-0.71797 1.0913-2.7283 3.9632-3.9058 5.6863l-1.4934 2.2114c-0.54566 0.83284-0.91901 1.4934-1.0913 2.0103-0.28719 0.86156 1.2636 2.5847 1.5795 2.6421 0.31591 0.0574 0.57437-0.0574 0.37334-0.22975-0.0862-0.1436 0.0862-0.80413 0.63182-1.8093 1.1775-2.1826 3.3888-4.9396 6.433-7.4956z" stroke-width="1.4"/>
<path d="m66.109 12.397c-2.0678 0-5.2267 1.8378-8.0124 4.1641-3.274 2.7283-6.0312 6.2607-6.0312 8.0987 0 1.3785 1.8667 3.2163 2.6996 3.2163 1.12 0 5.1411-3.2162 8.3576-6.1743l1.9239-1.7518c-2.1826 2.7857-3.2166 4.2789-3.3889 4.7672-0.0287 0.0862-0.0574 0.20117-0.0574 0.28732-0.0862 1.0913 1.522 2.9006 2.6133 2.9006 0.0287 0 0.0575-2.2e-4 0.14367-0.0289 0.5573-0.15923 1.5845-0.94506 2.7771-2.0081l-1.0862 0.43563s-1.637 0.62855-1.6273-0.22066c0.2988-2.4844 1.3661-3.3015 1.8361-4.9589 0.49375-1.4129 0.0869-2.6847-0.0982-3.1445-2.784 2.9647-10.576 7.8863-11.479 7.8863-0.20103 0-0.22995-0.11487-0.22995-0.20102 0-0.97644 2.6996-4.3941 5.9448-7.4383 2.2688-2.1252 4.7961-3.9056 6.8926-4.3651 0.22975-0.0574 0.48804-0.0863 0.71779-0.0863 0.43078 0 0.80444 0.14378 0.91932 0.632 0.0214 0.10743 0.022 0.15273 0.0248 0.25994 6e-3 0.2281-9e-3 0.72697-0.19585 1.3736-0.11031 0.38222-0.37575 0.92869-0.88832 1.2599 5e-3 9e-3 0.0102 0.0168 0.0191 0.0217 0.1186 0.0657 0.52297-0.12919 0.52297-0.12919 0.89029-0.43079 1.8097-1.149 1.8097-1.5798 0-1.7231-1.8384-3.2164-4.1072-3.2164z" stroke-width="1.4"/>
<path d="m50.429 12.512c-1.8667 0-3.7047 0.71794-5.3992 1.9528-0.40206-0.6031-0.9481-1.2352-1.264-1.5224-0.71797-0.6031-0.97646-0.37311-0.94774-0.37311 0.51694 0.25847 0.17234 1.3209-0.60307 2.4696-1.12 1.6657-4.1641 5.8587-5.9159 8.4434-2.4124 3.5898-2.8763 4.0326-4.3139 7.3355-0.7467 2.0103 2.559 3.929 2.559 3.5269-1.3498-1.6082 1.9778-6.3393 3.2194-8.1628 0.80412 1.0626 2.3838 1.7808 3.3316 1.7808 3.8196 0 7.8401-3.2742 10.166-5.8301 1.1199-1.2348 2.0102-2.5841 2.5559-3.8189v-5.3e-4l0.30747-0.84542c0.18135-0.56539 0.29559-1.0894 0.29559-1.5668 0-1.5508-2.2684-3.389-3.9915-3.389zm0.68885 0.97617c0.71797 0 1.2066 0.40209 1.2066 0.94775 0 1.0052-0.63195 2.3264-1.6371 3.7336l-0.80408 1.034c-3.0442 3.5611-7.1512 7.2083-10.626 7.2083-0.37334 0-0.71778-0.11492-0.71778-0.5457 0-0.42309 1.3074-2.2865 4.7548-4.1486 1.9894-1.2225 4.295-2.564 5.2312-3.1063-2.4226 0.54041-4.8601 1.2571-7.5448 2.7745 2.1539-2.7283 3.791-4.4802 5.5428-5.7438 1.637-1.1775 3.5032-2.1539 4.5946-2.1539z" stroke-width="1.4"/>
<path d="m33.83 0.70857c-4.9971 0-11.114 2.2113-14.532 4.8534-2.1539 1.6657-3.5324 3.6757-2.3549 5.0829 0.31591 0.37335 0.77511 0.74686 1.5792 1.034 1.5221 0.57437 3.8772 1.1776 6.2895 1.8381 3.2736 0.89018 6.8054 2.0102 8.1556 3.5894l5.3e-4 5.3e-4h5.3e-4s0.24916 0.23583 0.48782 0.74672c8e-3 0.0182 0.0124 0.0346 0.0129 0.0507 0.0525 0.18879 0.10181 0.39595 0.10181 0.58084 0 2.5273-4.5086 6.2321-10.425 9.1901-5.4853 2.757-12.177 4.825-17.375 4.825-0.919 0-3.3884-0.43098-3.3884-1.7808 0-3.5928 8.3932-8.9993 18.063-11.527 1.4711-0.45194 3.6339-0.99696 6.52-1.4164 4.1158-0.59823 4.718-0.68885 4.718-0.68885s-3.8331-0.13646-8.0548 0.25063c-1.2704 0.11648-2.3965 0.25211-3.376 0.39068-10.045 1.8959-19.852 6.6957-19.852 11.67 0 3.3601 6.1171 5.1403 8.9028 5.1403 4.0781 0 11.085-1.8667 16.858-4.8534 5.1981-2.6709 9.4201-6.2894 9.4201-9.6495 0-0.74549-0.20055-1.4335-0.54415-2.0645-0.22201-0.36631-0.46098-0.69248-0.46098-0.69248-1.838-2.3262-5.9165-3.7045-9.3054-4.6235-2.6709-0.71797-4.8821-1.2064-5.3129-1.5798-2.4698-2.2401 8.2709-8.7592 15.91-8.7592 1.2062 0 1.666 0.48801 1.666 1.1198 0 2.2114-4.7386 6.4042-7.8977 8.3571-0.31591 0.17231-0.14345 0.34468 0.0863 0.34468 1.838 0 9.5059-4.0781 9.5059-6.5479 0-2.9293-2.2401-4.8819-5.3992-4.8819z" stroke-width="1.4"/>
</g>
</svg>
